<svg width="226" height="226" viewBox="0 0 226 226" fill="none" xmlns="http://www.w3.org/2000/svg">
<ellipse cx="112.79" cy="172.278" rx="22.6353" ry="22.6353" transform="rotate(-90 112.79 172.278)" fill="#FFC110"/>
<path fill-rule="evenodd" clip-rule="evenodd" d="M126.335 126.522L139.095 66.5776C139.992 63.8624 140.478 60.9596 140.478 57.9433C140.478 42.7674 128.176 30.465 113 30.465C97.8244 30.465 85.522 42.7674 85.522 57.9433C85.522 60.8141 85.9622 63.5822 86.7789 66.1836L99.223 126.168C99.5543 133.374 105.502 139.115 112.79 139.115C119.958 139.115 125.829 133.561 126.335 126.522Z" fill="#FFC110"/>
<path d="M139.095 66.5776L138.947 66.5288L138.944 66.5369L138.942 66.5453L139.095 66.5776ZM126.335 126.522L126.183 126.489L126.181 126.5L126.18 126.51L126.335 126.522ZM86.7789 66.1836L86.9311 66.152L86.9296 66.1444L86.9272 66.137L86.7789 66.1836ZM99.223 126.168L99.3783 126.161L99.3777 126.148L99.3752 126.136L99.223 126.168ZM138.942 66.5453L126.183 126.489L126.488 126.554L139.247 66.61L138.942 66.5453ZM139.242 66.6264C140.145 63.8956 140.634 60.9764 140.634 57.9433L140.323 57.9433C140.323 60.9428 139.84 63.8291 138.947 66.5288L139.242 66.6264ZM140.634 57.9433C140.634 42.6816 128.262 30.3096 113 30.3096L113 30.6204C128.09 30.6204 140.323 42.8533 140.323 57.9433L140.634 57.9433ZM113 30.3096C97.7386 30.3096 85.3665 42.6816 85.3665 57.9433L85.6774 57.9433C85.6774 42.8533 97.9102 30.6204 113 30.6204L113 30.3096ZM85.3665 57.9433C85.3665 60.8301 85.8093 63.6139 86.6306 66.2301L86.9272 66.137C86.1152 63.5505 85.6774 60.7982 85.6774 57.9433L85.3665 57.9433ZM86.6267 66.2152L99.0708 126.199L99.3752 126.136L86.9311 66.152L86.6267 66.2152ZM99.0677 126.175C99.4028 133.464 105.418 139.27 112.79 139.27L112.79 138.959C105.585 138.959 99.7058 133.284 99.3783 126.161L99.0677 126.175ZM112.79 139.27C120.04 139.27 125.979 133.653 126.491 126.533L126.18 126.51C125.68 133.469 119.876 138.959 112.79 138.959L112.79 139.27Z" fill="#C4C4C4"/>
<circle cx="113" cy="113" r="103.208" stroke="#5A5A5A" stroke-width="19.5846"/>
</svg>
